HIERARCHY
ROOT root     
{
	OFFSET 0.0000 0.0000 0.0000
	CHANNELS 6 Xposition Yposition Zposition Zrotation Yrotation Xrotation
	JOINT pelvis   
	{
		OFFSET 0.0000 0.0000 0.0000
		CHANNELS 3 Zrotation Yrotation Xrotation
		JOINT thorax   
		{
			OFFSET 0.0000 23.0750 -5.0000
			CHANNELS 3 Zrotation Yrotation Xrotation
			JOINT rclavicle
			{
				OFFSET 0.0000 28.0009 0.0000
				CHANNELS 3 Zrotation Yrotation Xrotation
				JOINT rhumerus 
				{
					OFFSET -18.5725 5.5939 0.0000
					CHANNELS 3 Zrotation Yrotation Xrotation
					JOINT rradius  
					{
						OFFSET -24.8459 0.0000 0.0000
						CHANNELS 3 Zrotation Yrotation Xrotation
						JOINT rhand    
						{
							OFFSET -24.5477 0.0000 0.0000
							CHANNELS 3 Zrotation Yrotation Xrotation
							End Site
							{
								OFFSET -8.1826 0.0000 0.0000
							}
						}
					}
				}
			}
			JOINT lclavicle
			{
				OFFSET 0.0000 28.0009 0.0000
				CHANNELS 3 Zrotation Yrotation Xrotation
				JOINT lhumerus 
				{
					OFFSET 18.5725 5.5939 0.0000
					CHANNELS 3 Zrotation Yrotation Xrotation
					JOINT lradius  
					{
						OFFSET 24.8459 0.0000 0.0000
						CHANNELS 3 Zrotation Yrotation Xrotation
						JOINT lhand    
						{
							OFFSET 24.5477 0.0000 0.0000
							CHANNELS 3 Zrotation Yrotation Xrotation
							End Site
							{
								OFFSET 8.1826 0.0000 0.0000
							}
						}
					}
				}
			}
			JOINT head     
			{
				OFFSET 0.0000 35.2030 0.0000
				CHANNELS 3 Zrotation Yrotation Xrotation
				End Site
				{
					OFFSET 0.0000 11.7343 0.0000
				}
			}
		}
		JOINT rfemur   
		{
			OFFSET -8.2817 0.0000 0.0000
			CHANNELS 3 Zrotation Yrotation Xrotation
			JOINT rtibia   
			{
				OFFSET 0.0000 -43.3627 0.0000
				CHANNELS 3 Zrotation Yrotation Xrotation
				JOINT rfoot    
				{
					OFFSET 0.0000 -38.2947 0.0000
					CHANNELS 3 Zrotation Yrotation Xrotation
					JOINT rtoes    
					{
						OFFSET 0.0000 0.0000 16.6054
						CHANNELS 3 Zrotation Yrotation Xrotation
						End Site
						{
							OFFSET 0.0000 0.0000 5.5351
						}
					}
				}
			}
		}
		JOINT lfemur   
		{
			OFFSET 8.2817 0.0000 0.0000
			CHANNELS 3 Zrotation Yrotation Xrotation
			JOINT ltibia   
			{
				OFFSET 0.0000 -43.3627 0.0000
				CHANNELS 3 Zrotation Yrotation Xrotation
				JOINT lfoot    
				{
					OFFSET 0.0000 -38.2947 0.0000
					CHANNELS 3 Zrotation Yrotation Xrotation
					JOINT ltoes    
					{
						OFFSET 0.0000 0.0000 16.6054
						CHANNELS 3 Zrotation Yrotation Xrotation
						End Site
						{
							OFFSET 0.0000 0.0000 5.5351
						}
					}
				}
			}
		}
	}
}
MOTION
Frames: 9
Frame Time: .0333333
46.586 80.681 -25.022 179.883 19.5179 -158.285 0 -0 0 6.04642 -3.0004 21.0691 17.1727 -5.09887 -2.48277e-05 51.7471 6.56015 3.07301 -2.1254e-06 81.2279 -1.82265e-06 -7.34056 2.20391 -0.141397 -16.6701 10.265 -8.89255e-06 -56.4684 14.7639 4.34223 0 -57.047 0 -3.52474 8.67145 -0.267293 -0.908606 2.762 1.16694 3.78406 -12.3751 -43.8456 -0 -0 52.0192 5.09445e-06 -2.16983 -8.68063 0.327604 2.35692e-06 -39.3958 -7.57347 14.2856 -51.2874 -0 -0 67.2501 0.000115286 20.3881 -12.8599 -4.72887 6.23882e-06 -10.6966 
46.778 80.794 -25.463 179.771 19.0977 -158.332 0 -0 0 6.01108 -2.77218 20.9935 17.1306 -5.10234 1.06205e-05 51.6375 6.54999 2.91379 -0 81.6846 -0 -7.45705 2.16797 -0.141294 -16.6801 10.4025 -2.56373e-05 -56.3637 15.023 4.19734 0 -57.1958 0 -3.63506 8.68635 -0.276195 -0.943503 2.66428 0.914505 3.7293 -12.7287 -43.3742 -0 -0 51.8681 3.93436e-06 -2.21948 -8.67292 0.334797 -4.16426e-07 -39.8453 -8.00476 14.317 -52.0201 -0 -0 66.2691 -5.00193e-05 20.2597 -12.7576 -4.65993 -8.36404e-07 -10.7588 
46.965 80.901 -25.909 179.671 18.6647 -158.373 0 -0 0 5.98019 -2.55804 20.9127 17.111 -5.11043 2.33732e-06 51.5125 6.51097 2.76424 2.06198e-06 82.1787 2.36455e-06 -7.56705 2.13226 -0.140996 -16.6956 10.5356 -3.71798e-05 -56.2643 15.2885 4.05271 0 -57.4079 0 -3.74077 8.7046 -0.284796 -0.975895 2.55239 0.629499 3.68654 -13.0926 -42.9061 -0 -0 51.724 -4.12947e-06 -2.28248 -8.67389 0.344404 -6.36235e-06 -40.3422 -8.38697 14.2982 -52.7376 -0 -0 65.2665 0.000115513 20.07 -12.6462 -4.57339 -4.72346e-06 -10.8846 
47.146 81.004 -26.359 179.581 18.2222 -158.404 0 -0 0 5.95359 -2.35732 20.8292 17.1114 -5.12294 6.3003e-07 51.3726 6.44337 2.62289 1.57177e-06 82.7082 1.78565e-06 -7.6648 2.10115 -0.140794 -16.7138 10.6662 -7.65039e-05 -56.1721 15.5553 3.91704 0 -57.6773 0 -3.83771 8.72238 -0.2928 -1.00431 2.42557 0.309803 3.65505 -13.4634 -42.4414 -0 -0 51.581 3.88511e-06 -2.35892 -8.67915 0.356196 -3.40818e-06 -40.8923 -8.7223 14.2336 -53.4404 -0 -0 64.2435 0.000163841 19.8325 -12.528 -4.47351 9.37347e-06 -11.1086 
47.321 81.1 -26.813 179.502 17.7715 -158.425 0 -0 0 5.92965 -2.16888 20.7432 17.1289 -5.13883 2.40301e-05 51.2258 6.34785 2.48924 0 83.2753 0 -7.74666 2.07794 -0.140705 -16.7309 10.7967 8.2477e-05 -56.0882 15.8178 3.79646 0 -57.9955 0 -3.92394 8.73624 -0.299804 -1.0283 2.28478 -0.0460995 3.63319 -13.837 -41.9813 -0 -0 51.4366 1.43189e-06 -2.44639 -8.68255 0.369508 -5.69749e-07 -41.4958 -9.01532 14.1306 -54.1285 -0 -0 63.1974 -9.01877e-05 19.5634 -12.4083 -4.36632 5.22205e-06 -11.4288 
47.49 81.192 -27.272 179.431 17.3139 -158.438 0 -0 0 5.90639 -1.99086 20.6563 17.1615 -5.15912 1.17833e-05 51.0738 6.22763 2.36346 -2.57363e-06 83.8674 -2.31185e-06 -7.80901 2.06495 -0.141001 -16.7498 10.92 3.00523e-05 -56.0137 16.0852 3.68793 0 -58.3698 0 -3.99933 8.74462 -0.305893 -1.04859 2.13073 -0.437298 3.61762 -14.2085 -41.5244 -0 -0 51.2888 -4.90463e-06 -2.54077 -8.67742 0.3836 -5.89081e-06 -42.1426 -9.27167 13.9947 -54.8004 -0 -0 62.1241 6.75342e-05 19.2782 -12.2932 -4.2589 2.91865e-06 -11.7997 
47.653 81.277 -27.735 179.367 16.8541 -158.441 0 -0 0 5.88166 -1.82128 20.5688 17.2054 -5.18335 -2.15862e-05 50.9266 6.0853 2.24615 -1.64296e-06 84.4866 -1.49187e-06 -7.85062 2.06386 -0.141599 -16.7678 11.0381 -1.23265e-05 -55.95 16.3538 3.59611 0 -58.7908 0 -4.06561 8.74608 -0.311011 -1.06661 1.96478 -0.862604 3.60501 -14.5758 -41.0706 -0 -0 51.1389 2.55285e-06 -2.63728 -8.65927 0.397301 -3.78106e-06 -42.8218 -9.49998 13.8362 -55.452 -0 -0 61.0201 -5.22426e-05 18.9936 -12.1886 -4.15629 -3.86357e-06 -12.203 
47.807 81.357 -28.203 179.31 16.3971 -158.437 0 -0 0 5.8536 -1.65797 20.4815 17.2546 -5.21221 2.56999e-05 50.7872 5.92572 2.13923 1.69326e-06 85.1038 1.84434e-06 -7.87125 2.07562 -0.1428 -16.7837 11.1499 1.32659e-05 -55.8976 16.6258 3.52077 0 -59.2535 0 -4.12486 8.74126 -0.315395 -1.0846 1.78895 -1.31848 3.59095 -14.9317 -40.6222 -0 -0 50.9876 1.27064e-06 -2.73069 -8.62433 0.409803 2.92804e-06 -43.5158 -9.70749 13.6611 -56.0813 -0 -0 59.8816 -6.43795e-05 18.7221 -12.0973 -4.06259 1.74201e-05 -12.6052 
47.954 81.431 -28.677 179.258 15.9458 -158.427 0 -0 0 5.8202 -1.49949 20.3949 17.3069 -5.24483 -2.20712e-06 50.6628 5.75164 2.04378 3.06883e-06 85.7456 3.61943e-06 -7.87239 2.09927 -0.144501 -16.7958 11.2618 2.55653e-06 -55.8611 16.8928 3.46713 0 -59.7553 0 -4.18109 8.73147 -0.319297 -1.10511 1.60442 -1.80105 3.57211 -15.2751 -40.1774 -0 -0 50.8361 -1.69102e-06 -2.81645 -8.57211 0.420098 2.81689e-06 -44.2063 -9.90318 13.4769 -56.6859 -0 -0 58.7055 4.9117e-05 18.4732 -12.0183 -3.97936 -1.83782e-05 -12.9996 
